<?xml version="1.0" encoding="UTF-8" standalone="no"?>
<svg xmlns:xlink="http://www.w3.org/1999/xlink" height="40.0px" width="40.0px" xmlns="http://www.w3.org/2000/svg">
  <g transform="matrix(1.0, 0.0, 0.0, 1.0, 20.0, 20.0)">
    <path d="M-5.0 -0.85 L-5.0 -0.85 Q-4.8 0.35 -4.6 1.55 -4.35 2.05 -4.1 2.55 L-3.75 3.25 Q-2.6 3.2 -1.45 3.2 L-1.15 3.2 -0.85 3.2 -0.45 3.2 Q1.2 3.2 2.85 3.2 L3.9 3.2 Q4.25 2.35 4.6 1.5 L5.05 1.65 5.05 1.35 Q5.0 0.2 5.0 -0.95 4.4 -1.4 3.85 -1.8 L3.65 -2.0 3.6 -2.95 Q2.5 -2.95 1.4 -2.95 L1.1 -2.95 0.9 -2.95 Q-0.85 -2.9 -2.6 -2.9 -3.15 -2.9 -3.65 -2.9 -3.65 -2.45 -3.65 -2.0 -4.35 -1.4 -5.0 -0.85" fill="url(#gradient0)" fill-rule="evenodd" stroke="none">
      <animate attributeName="d" dur="2s" repeatCount="indefinite" values="M-5.0 -0.85 L-5.0 -0.85 Q-4.8 0.35 -4.6 1.55 -4.35 2.05 -4.1 2.55 L-3.75 3.25 Q-2.6 3.2 -1.45 3.2 L-1.15 3.2 -0.85 3.2 -0.45 3.2 Q1.2 3.2 2.85 3.2 L3.9 3.2 Q4.25 2.35 4.6 1.5 L5.05 1.65 5.05 1.35 Q5.0 0.2 5.0 -0.95 4.4 -1.4 3.85 -1.8 L3.65 -2.0 3.6 -2.95 Q2.5 -2.95 1.4 -2.95 L1.1 -2.95 0.9 -2.95 Q-0.85 -2.9 -2.6 -2.9 -3.15 -2.9 -3.65 -2.9 -3.65 -2.45 -3.65 -2.0 -4.35 -1.4 -5.0 -0.85;M-20.0 0.0 L-20.0 0.7 Q-19.85 6.1 -17.05 10.55 -15.85 12.45 -14.15 14.15 L-11.55 16.35 Q-7.25 19.45 -1.8 19.95 L-0.7 20.0 0.5 20.0 1.95 19.9 Q9.05 19.3 14.2 14.15 L17.0 10.7 Q19.15 7.3 19.75 3.25 L19.95 1.3 20.0 0.0 Q20.0 -5.15 17.75 -9.35 16.4 -11.9 14.2 -14.1 L13.3 -14.95 9.95 -17.45 Q5.95 -19.8 1.05 -20.0 L0.0 -20.0 -1.05 -20.0 Q-8.7 -19.65 -14.15 -14.1 -15.75 -12.5 -16.9 -10.7 -18.0 -9.05 -18.7 -7.25 -20.0 -3.9 -20.0 0.0"/>
    </path>
    <path d="M-5.0 -0.85 Q-4.35 -1.4 -3.65 -2.0 -3.65 -2.45 -3.65 -2.9 -3.15 -2.9 -2.6 -2.9 -0.85 -2.9 0.9 -2.95 L1.1 -2.95 1.4 -2.95 Q2.5 -2.95 3.6 -2.95 L3.65 -2.0 3.85 -1.8 Q4.4 -1.4 5.0 -0.95 5.0 0.2 5.05 1.35 L5.05 1.65 4.6 1.5 Q4.25 2.35 3.9 3.2 L2.85 3.2 Q1.2 3.2 -0.45 3.2 L-0.85 3.2 -1.15 3.2 -1.45 3.2 Q-2.6 3.2 -3.75 3.25 L-4.1 2.55 Q-4.35 2.05 -4.6 1.55 -4.8 0.35 -5.0 -0.85 L-5.0 -0.85" fill="none" stroke="#000000" stroke-linecap="round" stroke-linejoin="round" stroke-opacity="0.0" stroke-width="1.0">
      <animate attributeName="stroke" dur="2s" repeatCount="indefinite" values="#000000;#000001"/>
      <animate attributeName="stroke-width" dur="2s" repeatCount="indefinite" values="0.0;0.0"/>
      <animate attributeName="fill-opacity" dur="2s" repeatCount="indefinite" values="0.0;0.0"/>
      <animate attributeName="d" dur="2s" repeatCount="indefinite" values="M-5.0 -0.85 Q-4.35 -1.4 -3.65 -2.0 -3.65 -2.45 -3.65 -2.9 -3.15 -2.9 -2.6 -2.9 -0.85 -2.9 0.9 -2.95 L1.1 -2.95 1.4 -2.95 Q2.5 -2.95 3.6 -2.95 L3.65 -2.0 3.85 -1.8 Q4.4 -1.4 5.0 -0.95 5.0 0.2 5.05 1.35 L5.05 1.65 4.6 1.5 Q4.25 2.35 3.9 3.2 L2.85 3.2 Q1.2 3.2 -0.45 3.2 L-0.85 3.2 -1.15 3.2 -1.45 3.2 Q-2.6 3.2 -3.75 3.25 L-4.1 2.55 Q-4.35 2.05 -4.6 1.55 -4.8 0.35 -5.0 -0.85 L-5.0 -0.85;M-20.0 0.0 Q-20.0 -3.9 -18.7 -7.25 -18.0 -9.05 -16.9 -10.7 -15.75 -12.5 -14.15 -14.1 -8.7 -19.65 -1.05 -20.0 L0.0 -20.0 1.05 -20.0 Q5.95 -19.8 9.95 -17.45 L13.3 -14.95 14.2 -14.1 Q16.4 -11.9 17.75 -9.35 20.0 -5.15 20.0 0.0 L19.95 1.3 19.75 3.25 Q19.15 7.3 17.0 10.7 L14.2 14.15 Q9.05 19.3 1.95 19.9 L0.5 20.0 -0.7 20.0 -1.8 19.95 Q-7.25 19.45 -11.55 16.35 L-14.15 14.15 Q-15.85 12.45 -17.05 10.55 -19.85 6.1 -20.0 0.7 L-20.0 0.0"/>
    </path>
  </g>
  <defs>
    <radialGradient cx="0" cy="0" gradientTransform="matrix(0.0246, 0.0, 0.0, 0.0246, 0.0, -0.05)" gradientUnits="userSpaceOnUse" id="gradient0" r="819.2" spreadMethod="pad">
      <animateTransform additive="replace" attributeName="gradientTransform" dur="2s" from="1" repeatCount="indefinite" to="1" type="scale"/>
      <animateTransform additive="sum" attributeName="gradientTransform" dur="2s" from="0.0 -0.05" repeatCount="indefinite" to="0.0 -0.05" type="translate"/>
      <animateTransform additive="sum" attributeName="gradientTransform" dur="2s" from="0.0" repeatCount="indefinite" to="0.0" type="rotate"/>
      <animateTransform additive="sum" attributeName="gradientTransform" dur="2s" from="0.0246 0.0246" repeatCount="indefinite" to="0.0246 0.0246" type="scale"/>
      <animateTransform additive="sum" attributeName="gradientTransform" dur="2s" from="0.0" repeatCount="indefinite" to="0.0" type="skewX"/>
      <stop offset="0.0" stop-color="#511400">
        <animate attributeName="offset" dur="2s" repeatCount="indefinite" values="0.0;0.0"/>
        <animate attributeName="stop-color" dur="2s" repeatCount="indefinite" values="#511400;#ffff01"/>
        <animate attributeName="stop-opacity" dur="2s" repeatCount="indefinite" values="1.0;1.0"/>
      </stop>
      <stop offset="1.0" stop-color="#511400">
        <animate attributeName="offset" dur="2s" repeatCount="indefinite" values="1.0;1.0"/>
        <animate attributeName="stop-color" dur="2s" repeatCount="indefinite" values="#511400;#ff0001"/>
        <animate attributeName="stop-opacity" dur="2s" repeatCount="indefinite" values="1.0;1.0"/>
      </stop>
    </radialGradient>
  </defs>
</svg>
