<?xml version="1.0" encoding="UTF-8" standalone="no"?>
<svg xmlns:xlink="http://www.w3.org/1999/xlink" height="60.0px" width="70.0px" xmlns="http://www.w3.org/2000/svg">
  <g transform="matrix(1.0, 0.0, 0.0, 1.0, 35.0, 30.0)">
    <path d="M-35.0 0.0 Q-35.05 8.25 -24.8 14.15 -15.7 19.3 -3.2 19.95 L-0.7 20.0 -1.8 19.95 Q-8.95 19.3 -14.15 14.15 -20.0 8.25 -20.0 0.0 -20.0 -8.25 -14.15 -14.1 -8.7 -19.65 -1.05 -20.0 -14.95 -19.8 -24.8 -14.1 -35.05 -8.25 -35.0 0.0 M0.5 20.0 Q1.25 19.95 1.95 19.9 9.05 19.3 14.2 14.15 20.0 8.25 20.0 0.0 20.0 -8.25 14.2 -14.1 8.7 -19.65 1.05 -20.0 14.95 -19.8 24.85 -14.1 35.0 -8.25 35.0 0.0 35.0 8.25 24.85 14.15 15.8 19.3 3.4 19.9 1.95 19.95 0.5 20.0" fill="#010101" fill-opacity="0.0" fill-rule="evenodd" stroke="none">
      <animate attributeName="fill" dur="2s" repeatCount="indefinite" values="#010101;#010102"/>
      <animate attributeName="fill-opacity" dur="2s" repeatCount="indefinite" values="0.0;0.0"/>
      <animate attributeName="d" dur="2s" repeatCount="indefinite" values="M-35.0 0.0 Q-35.05 8.25 -24.8 14.15 -15.7 19.3 -3.2 19.95 L-0.7 20.0 -1.8 19.95 Q-8.95 19.3 -14.15 14.15 -20.0 8.25 -20.0 0.0 -20.0 -8.25 -14.15 -14.1 -8.7 -19.65 -1.05 -20.0 -14.95 -19.8 -24.8 -14.1 -35.05 -8.25 -35.0 0.0 M0.5 20.0 Q1.25 19.95 1.95 19.9 9.05 19.3 14.2 14.15 20.0 8.25 20.0 0.0 20.0 -8.25 14.2 -14.1 8.7 -19.65 1.05 -20.0 14.95 -19.8 24.85 -14.1 35.0 -8.25 35.0 0.0 35.0 8.25 24.85 14.15 15.8 19.3 3.4 19.9 1.95 19.95 0.5 20.0;M-29.9 0.0 Q-29.9 12.4 -21.15 21.25 -13.35 29.05 -2.65 29.95 L0.1 30.0 3.05 29.85 Q13.65 29.0 21.4 21.25 30.1 12.4 30.1 0.0 30.1 -12.35 21.4 -21.15 12.6 -30.0 0.1 -30.0 -12.4 -30.0 -21.15 -21.15 -29.9 -12.35 -29.9 0.0 M-29.9 0.0 Q-29.9 12.4 -21.15 21.25 -13.35 29.05 -2.65 29.95 -1.25 30.0 0.1 30.0 1.6 29.9 3.05 29.85 13.65 29.0 21.4 21.25 30.1 12.4 30.1 0.0 30.1 -12.35 21.4 -21.15 12.6 -30.0 0.1 -30.0 -12.4 -30.0 -21.15 -21.15 -29.9 -12.35 -29.9 0.0"/>
    </path>
    <path d="M-20.0 0.0 L-20.0 0.1 Q-20.0 8.25 -14.05 14.25 -8.9 19.3 -1.8 19.95 L-1.5 19.95 -0.7 20.0 0.3 20.0 0.5 20.0 1.95 19.9 2.35 19.9 Q9.2 19.15 14.2 14.15 L14.45 13.85 Q20.0 8.05 20.0 0.0 L20.0 -0.5 Q19.85 -8.4 14.2 -14.1 L13.9 -14.35 Q8.5 -19.65 1.05 -20.0 L-1.05 -20.0 Q-8.7 -19.65 -14.25 -14.0 -20.0 -8.2 -20.0 0.0" fill="url(#gradient0)" fill-rule="evenodd" stroke="none">
      <animate attributeName="d" dur="2s" repeatCount="indefinite" values="M-20.0 0.0 L-20.0 0.1 Q-20.0 8.25 -14.05 14.25 -8.9 19.3 -1.8 19.95 L-1.5 19.95 -0.7 20.0 0.3 20.0 0.5 20.0 1.95 19.9 2.35 19.9 Q9.2 19.15 14.2 14.15 L14.45 13.85 Q20.0 8.05 20.0 0.0 L20.0 -0.5 Q19.85 -8.4 14.2 -14.1 L13.9 -14.35 Q8.5 -19.65 1.05 -20.0 L-1.05 -20.0 Q-8.7 -19.65 -14.25 -14.0 -20.0 -8.2 -20.0 0.0;M-29.9 0.0 L-29.9 0.0 Q-29.9 12.3 -21.15 21.25 -13.5 28.9 -2.95 29.95 L-2.65 29.95 -1.35 29.95 0.1 30.0 0.4 30.0 2.5 29.9 3.05 29.85 Q13.4 29.0 21.05 21.55 L21.4 21.25 Q29.85 12.65 30.1 0.75 L30.1 0.0 Q30.1 -12.1 21.8 -20.75 L21.4 -21.15 Q13.35 -29.25 2.2 -29.95 L-1.0 -30.0 Q-12.7 -29.6 -21.15 -21.15 -29.9 -12.35 -29.9 0.0"/>
    </path>
    <path d="M-35.0 0.0 Q-35.05 -8.25 -24.8 -14.1 -14.95 -19.8 -1.05 -20.0 -8.7 -19.65 -14.15 -14.1 -20.0 -8.25 -20.0 0.0 -20.0 8.25 -14.15 14.15 -8.95 19.3 -1.8 19.95 L-0.7 20.0 -3.2 19.95 Q-15.7 19.3 -24.8 14.15 -35.05 8.25 -35.0 0.0 M-20.0 0.0 Q-20.0 -8.2 -14.25 -14.0 -8.7 -19.65 -1.05 -20.0 L1.05 -20.0 Q8.5 -19.65 13.9 -14.35 L14.2 -14.1 Q19.85 -8.4 20.0 -0.5 L20.0 0.0 Q20.0 8.05 14.45 13.85 L14.2 14.15 Q9.2 19.15 2.35 19.9 L1.95 19.9 0.5 20.0 0.3 20.0 -0.7 20.0 -1.5 19.95 -1.8 19.95 Q-8.9 19.3 -14.05 14.25 -20.0 8.25 -20.0 0.1 L-20.0 0.0 M0.5 20.0 Q1.95 19.95 3.4 19.9 15.8 19.3 24.85 14.15 35.0 8.25 35.0 0.0 35.0 -8.25 24.85 -14.1 14.95 -19.8 1.05 -20.0 8.7 -19.65 14.2 -14.1 20.0 -8.25 20.0 0.0 20.0 8.25 14.2 14.15 9.05 19.3 1.95 19.9 1.25 19.95 0.5 20.0" fill="none" stroke="#000000" stroke-linecap="round" stroke-linejoin="round" stroke-opacity="0.0" stroke-width="1.0">
      <animate attributeName="stroke" dur="2s" repeatCount="indefinite" values="#000000;#000001"/>
      <animate attributeName="stroke-width" dur="2s" repeatCount="indefinite" values="0.0;0.0"/>
      <animate attributeName="fill-opacity" dur="2s" repeatCount="indefinite" values="0.0;0.0"/>
      <animate attributeName="d" dur="2s" repeatCount="indefinite" values="M-35.0 0.0 Q-35.05 -8.25 -24.8 -14.1 -14.95 -19.8 -1.05 -20.0 -8.7 -19.65 -14.15 -14.1 -20.0 -8.25 -20.0 0.0 -20.0 8.25 -14.15 14.15 -8.95 19.3 -1.8 19.95 L-0.7 20.0 -3.2 19.95 Q-15.7 19.3 -24.8 14.15 -35.05 8.25 -35.0 0.0 M-20.0 0.0 Q-20.0 -8.2 -14.25 -14.0 -8.7 -19.65 -1.05 -20.0 L1.05 -20.0 Q8.5 -19.65 13.9 -14.35 L14.2 -14.1 Q19.85 -8.4 20.0 -0.5 L20.0 0.0 Q20.0 8.05 14.45 13.85 L14.2 14.15 Q9.2 19.15 2.35 19.9 L1.95 19.9 0.5 20.0 0.3 20.0 -0.7 20.0 -1.5 19.95 -1.8 19.95 Q-8.9 19.3 -14.05 14.25 -20.0 8.25 -20.0 0.1 L-20.0 0.0 M0.5 20.0 Q1.95 19.95 3.4 19.9 15.8 19.3 24.85 14.15 35.0 8.25 35.0 0.0 35.0 -8.25 24.85 -14.1 14.95 -19.8 1.05 -20.0 8.7 -19.65 14.2 -14.1 20.0 -8.25 20.0 0.0 20.0 8.25 14.2 14.15 9.05 19.3 1.95 19.9 1.25 19.95 0.5 20.0;M-29.9 0.0 Q-29.9 -12.35 -21.15 -21.15 -12.4 -30.0 0.1 -30.0 12.6 -30.0 21.4 -21.15 30.1 -12.35 30.1 0.0 30.1 12.4 21.4 21.25 13.65 29.0 3.05 29.85 L0.1 30.0 -2.65 29.95 Q-13.35 29.05 -21.15 21.25 -29.9 12.4 -29.9 0.0 M-29.9 0.0 Q-29.9 -12.35 -21.15 -21.15 -12.7 -29.6 -1.0 -30.0 L2.2 -29.95 Q13.35 -29.25 21.4 -21.15 L21.8 -20.75 Q30.1 -12.1 30.1 0.0 L30.1 0.75 Q29.85 12.65 21.4 21.25 L21.05 21.55 Q13.4 29.0 3.05 29.85 L2.5 29.9 0.4 30.0 0.1 30.0 -1.35 29.95 -2.65 29.95 -2.95 29.95 Q-13.5 28.9 -21.15 21.25 -29.9 12.3 -29.9 0.0 L-29.9 0.0 M-29.9 0.0 Q-29.9 -12.35 -21.15 -21.15 -12.4 -30.0 0.1 -30.0 12.6 -30.0 21.4 -21.15 30.1 -12.35 30.1 0.0 30.1 12.4 21.4 21.25 13.65 29.0 3.05 29.85 1.6 29.9 0.1 30.0 -1.25 30.0 -2.65 29.95 -13.35 29.05 -21.15 21.25 -29.9 12.4 -29.9 0.0"/>
    </path>
  </g>
  <defs>
    <radialGradient cx="0" cy="0" gradientTransform="matrix(0.0246, 0.0, 0.0, 0.0246, 0.0, -0.05)" gradientUnits="userSpaceOnUse" id="gradient0" r="819.2" spreadMethod="pad">
      <animateTransform additive="replace" attributeName="gradientTransform" dur="2s" from="1" repeatCount="indefinite" to="1" type="scale"/>
      <animateTransform additive="sum" attributeName="gradientTransform" dur="2s" from="0.0 -0.05" repeatCount="indefinite" to="0.0 -0.05" type="translate"/>
      <animateTransform additive="sum" attributeName="gradientTransform" dur="2s" from="0.0" repeatCount="indefinite" to="0.0" type="rotate"/>
      <animateTransform additive="sum" attributeName="gradientTransform" dur="2s" from="0.0246 0.0246" repeatCount="indefinite" to="0.0246 0.0246" type="scale"/>
      <animateTransform additive="sum" attributeName="gradientTransform" dur="2s" from="0.0" repeatCount="indefinite" to="0.0" type="skewX"/>
      <stop offset="0.0" stop-color="#ffff00">
        <animate attributeName="offset" dur="2s" repeatCount="indefinite" values="0.0;0.0"/>
        <animate attributeName="stop-color" dur="2s" repeatCount="indefinite" values="#ffff00;#010102"/>
        <animate attributeName="stop-opacity" dur="2s" repeatCount="indefinite" values="1.0;0.0"/>
      </stop>
      <stop offset="1.0" stop-color="#ff0000">
        <animate attributeName="offset" dur="2s" repeatCount="indefinite" values="1.0;1.0"/>
        <animate attributeName="stop-color" dur="2s" repeatCount="indefinite" values="#ff0000;#010102"/>
        <animate attributeName="stop-opacity" dur="2s" repeatCount="indefinite" values="1.0;0.0"/>
      </stop>
    </radialGradient>
  </defs>
</svg>
