<?xml version="1.0" encoding="UTF-8" standalone="no"?>
<svg xmlns:xlink="http://www.w3.org/1999/xlink" height="6.0px" width="31.0px" xmlns="http://www.w3.org/2000/svg">
  <g transform="matrix(1.0, 0.0, 0.0, 1.0, 15.6, 2.9)">
    <path d="M4.1 -2.9 L15.0 -0.5 15.3 -0.3 15.4 0.0 15.35 0.05 15.3 0.3 15.2 0.4 15.2 0.45 14.85 0.55 4.15 3.1 3.75 3.05 3.55 2.75 Q3.45 2.55 3.6 2.35 3.7 2.15 3.9 2.15 L10.55 0.55 -15.1 0.6 -15.45 0.45 -15.6 0.1 -15.45 -0.25 -15.1 -0.4 10.5 -0.45 3.9 -1.9 3.6 -2.1 3.5 -2.5 3.75 -2.8 4.1 -2.9" fill="#000000" fill-rule="evenodd" stroke="none"/>
  </g>
</svg>
