<?xml version="1.0" encoding="UTF-8" standalone="no"?>
<svg xmlns:xlink="http://www.w3.org/1999/xlink" height="11.2px" width="8.5px" xmlns="http://www.w3.org/2000/svg">
  <g transform="matrix(1.0, 0.0, 0.0, 1.0, 4.25, 4.95)">
    <path d="M2.2 -2.85 L3.75 -2.85 3.75 5.75 -3.75 5.75 -3.75 -2.85 -2.0 -2.85 2.2 -2.85 M1.55 0.0 L0.0 1.6 -1.55 0.0 0.0 1.6 1.55 0.0 M-1.4 3.0 L0.0 1.6 1.4 3.0 0.0 1.6 -1.4 3.0" fill="#006600" fill-rule="evenodd" stroke="none"/>
    <path d="M2.2 -2.85 L3.75 -2.85 3.75 5.75 -3.75 5.75 -3.75 -2.85 -2.0 -2.85 -2.0 -4.45 2.2 -4.45 2.2 -2.85 -2.0 -2.85 M1.4 3.0 L0.0 1.6 -1.4 3.0 M-1.55 0.0 L0.0 1.6 1.55 0.0" fill="none" stroke="#000000" stroke-linecap="round" stroke-linejoin="round" stroke-width="1.0"/>
  </g>
</svg>
