<?xml version="1.0" encoding="UTF-8" standalone="no"?>
<svg xmlns:xlink="http://www.w3.org/1999/xlink" height="7.65px" width="11.2px" xmlns="http://www.w3.org/2000/svg">
  <g transform="matrix(1.0, 0.0, 0.0, 1.0, 5.6, 3.45)">
    <path d="M3.4 -3.45 L3.4 -3.3 3.4 -2.7 5.1 -2.7 5.45 -2.55 5.6 -2.2 5.6 3.7 5.45 4.05 5.1 4.2 -5.1 4.2 -5.45 4.05 -5.6 3.7 -5.6 -2.2 -5.45 -2.55 -5.1 -2.7 -3.45 -2.7 -3.45 -3.3 -3.45 -3.45 -1.45 -3.45 -1.45 -3.3 -1.45 -2.7 1.4 -2.7 1.4 -3.3 1.4 -3.45 3.4 -3.45 M-0.95 0.3 Q-0.75 0.3 -0.6 0.45 -0.45 0.6 -0.45 0.8 L-0.6 1.15 -0.95 1.3 -3.65 1.3 -4.0 1.15 -4.15 0.8 -4.0 0.45 Q-3.85 0.3 -3.65 0.3 L-0.95 0.3 M4.6 3.2 L4.6 -1.7 -4.6 -1.7 -4.6 3.2 4.6 3.2" fill="#000000" fill-rule="evenodd" stroke="none"/>
    <path d="M1.9 -0.55 L2.05 -0.9 Q2.2 -1.05 2.4 -1.05 L2.75 -0.9 2.9 -0.55 2.9 0.3 3.8 0.3 4.15 0.45 4.3 0.8 4.15 1.15 3.8 1.3 2.9 1.3 2.9 2.15 2.75 2.5 2.4 2.65 Q2.2 2.65 2.05 2.5 L1.9 2.15 1.9 1.3 1.0 1.3 0.65 1.15 0.5 0.8 0.65 0.45 Q0.8 0.3 1.0 0.3 L1.9 0.3 1.9 -0.55" fill="#ff0000" fill-rule="evenodd" stroke="none"/>
  </g>
</svg>
