<?xml version="1.0" encoding="UTF-8" standalone="no"?>
<svg xmlns:xlink="http://www.w3.org/1999/xlink" height="9.1px" width="20.5px" xmlns="http://www.w3.org/2000/svg">
  <g transform="matrix(1.0, 0.0, 0.0, 1.0, 10.25, 3.8)">
    <path d="M3.5 -3.5 Q6.4 -3.25 7.3 -2.35 8.1 -1.6 8.1 -0.45 L7.95 0.5 9.1 0.9 Q10.25 1.5 10.25 2.35 10.25 3.2 9.1 3.8 7.55 4.55 4.75 4.95 L0.5 5.3 -3.2 5.05 -6.95 4.5 Q-8.45 4.15 -9.35 3.3 -10.25 2.4 -10.25 1.15 -10.25 -0.1 -9.35 -0.95 -8.5 -1.85 -7.25 -1.85 -6.5 -1.9 -5.85 -1.55 L-5.0 -2.85 Q-3.5 -3.85 -1.95 -3.8 0.75 -3.7 1.0 -2.6 1.75 -3.65 3.5 -3.5" fill="#0099ff" fill-rule="evenodd" stroke="none"/>
  </g>
</svg>
