<?xml version="1.0" encoding="UTF-8" standalone="no"?>
<svg xmlns:xlink="http://www.w3.org/1999/xlink" height="14.95px" width="123.45px" xmlns="http://www.w3.org/2000/svg">
  <g transform="matrix(1.0, 0.0, 0.0, 1.0, 62.4, 7.05)">
    <path d="M45.1 7.4 L-46.85 7.4 -46.85 -6.55 45.1 -6.55 45.1 7.4" fill="#ffffff" fill-rule="evenodd" stroke="none"/>
    <path d="M60.05 -6.55 L60.55 -6.55 60.55 7.4 45.1 7.4 45.1 -6.55 60.05 -6.55 M-46.85 7.4 L-61.0 7.4 -61.9 7.4 -61.9 -6.55 -46.85 -6.55 -46.85 7.4" fill="#cccccc" fill-rule="evenodd" stroke="none"/>
    <path d="M60.55 -6.55 L60.55 7.4 45.1 7.4 -46.85 7.4 -61.0 7.4 M-61.9 7.4 L-61.9 -6.55 -46.85 -6.55 45.1 -6.55 60.05 -6.55 M45.1 -6.55 L45.1 7.4 M-46.85 -6.55 L-46.85 7.4" fill="none" stroke="#000000" stroke-linecap="round" stroke-linejoin="round" stroke-width="1.0"/>
  </g>
</svg>
