<?xml version="1.0" encoding="UTF-8" standalone="no"?>
<svg xmlns:xlink="http://www.w3.org/1999/xlink" height="7.15px" width="21.45px" xmlns="http://www.w3.org/2000/svg">
  <g transform="matrix(1.0, 0.0, 0.0, 1.0, 10.6, 3.6)">
    <path d="M0.85 -2.4 L-0.3 -2.4 -0.3 -0.6 0.8 -0.6 2.1 -0.65 2.5 -0.95 2.65 -1.5 2.45 -2.1 1.9 -2.35 0.85 -2.4 M3.65 -0.25 Q3.2 0.25 2.25 0.4 L3.0 1.0 3.85 2.15 4.7 3.55 3.0 3.55 1.95 2.0 1.2 0.95 0.75 0.65 0.0 0.55 -0.3 0.55 -0.3 3.55 -1.7 3.55 -1.7 -3.6 1.3 -3.6 3.0 -3.4 3.8 -2.75 4.1 -1.6 Q4.1 -0.8 3.65 -0.25 M6.85 -0.8 L10.45 -0.8 10.45 0.4 6.85 0.4 6.85 2.35 10.85 2.35 10.85 3.55 5.45 3.55 5.45 -3.6 10.7 -3.6 10.7 -2.4 6.85 -2.4 6.85 -0.8 M-3.15 -3.6 L-3.15 3.55 -4.55 3.55 -4.55 -3.6 -3.15 -3.6 M-6.2 -0.7 L-6.2 0.5 -9.15 0.5 -9.15 3.55 -10.6 3.55 -10.6 -3.6 -5.7 -3.6 -5.7 -2.4 -9.15 -2.4 -9.15 -0.7 -6.2 -0.7" fill="#000000" fill-rule="evenodd" stroke="none"/>
  </g>
</svg>
