<?xml version="1.0" encoding="UTF-8" standalone="no"?>
<svg xmlns:xlink="http://www.w3.org/1999/xlink" height="16.0px" width="16.0px" xmlns="http://www.w3.org/2000/svg">
  <g transform="matrix(1.0, 0.0, 0.0, 1.0, 8.0, 8.0)">
    <path d="M7.5 0.0 Q7.5 3.1 5.3 5.25 3.1 7.45 0.0 7.5 L-1.2 7.4 Q-3.6 7.05 -5.35 5.25 -7.5 3.1 -7.5 0.0 -7.5 -3.15 -5.35 -5.35 -4.1 -6.6 -2.5 -7.15 L0.0 -7.5 Q3.1 -7.55 5.3 -5.35 7.5 -3.15 7.5 0.0" fill="#ffffff" fill-rule="evenodd" stroke="none"/>
    <path d="M7.5 0.0 Q7.5 3.1 5.3 5.25 3.1 7.45 0.0 7.5 L-1.2 7.4 Q-3.6 7.05 -5.35 5.25 -7.5 3.1 -7.5 0.0 -7.5 -3.15 -5.35 -5.35 -4.1 -6.6 -2.5 -7.15 L0.0 -7.5 Q3.1 -7.55 5.3 -5.35 7.5 -3.15 7.5 0.0 Z" fill="none" stroke="#000000" stroke-linecap="round" stroke-linejoin="round" stroke-width="1.0"/>
  </g>
</svg>
