<?xml version="1.0" encoding="UTF-8" standalone="no"?>
<svg xmlns:xlink="http://www.w3.org/1999/xlink" height="11.0px" width="11.0px" xmlns="http://www.w3.org/2000/svg">
  <g transform="matrix(1.0, 0.0, 0.0, 1.0, 5.5, 5.5)">
    <path d="M2.9 -2.9 Q1.7 -4.15 0.0 -4.1 -1.7 -4.15 -2.9 -2.9 -4.1 -1.7 -4.1 0.0 -4.1 1.7 -2.9 2.9 -1.7 4.1 0.0 4.1 1.7 4.1 2.9 2.9 4.1 1.7 4.1 0.0 4.1 -1.7 2.9 -2.9 M0.0 -5.5 Q2.3 -5.55 3.9 -3.9 5.5 -2.3 5.5 0.0 5.5 2.25 3.9 3.9 2.3 5.5 0.0 5.5 -2.3 5.5 -3.9 3.9 -5.5 2.25 -5.5 0.0 -5.5 -2.3 -3.9 -3.9 -2.3 -5.55 0.0 -5.5" fill="#00fff9" fill-rule="evenodd" stroke="none"/>
  </g>
</svg>
