<?xml version="1.0" encoding="UTF-8" standalone="no"?>
<svg xmlns:xlink="http://www.w3.org/1999/xlink" height="11.0px" width="11.0px" xmlns="http://www.w3.org/2000/svg">
  <g transform="matrix(1.0, 0.0, 0.0, 1.0, 5.5, 5.5)">
    <path d="M3.2 -3.2 Q1.9 -4.55 0.0 -4.5 -1.9 -4.55 -3.2 -3.2 -4.5 -1.9 -4.5 0.0 -4.5 1.85 -3.2 3.2 -1.9 4.5 0.0 4.5 1.9 4.5 3.2 3.2 4.5 1.85 4.5 0.0 4.5 -1.9 3.2 -3.2 M0.0 -5.5 Q2.3 -5.55 3.9 -3.9 5.5 -2.3 5.5 0.0 5.5 2.25 3.9 3.9 2.3 5.5 0.0 5.5 -2.3 5.5 -3.9 3.9 -5.5 2.25 -5.5 0.0 -5.5 -2.3 -3.9 -3.9 -2.3 -5.55 0.0 -5.5" fill="#ffff17" fill-rule="evenodd" stroke="none"/>
  </g>
</svg>
