<?xml version="1.0" encoding="UTF-8" standalone="no"?>
<svg xmlns:xlink="http://www.w3.org/1999/xlink" height="11.35px" width="11.3px" xmlns="http://www.w3.org/2000/svg">
  <g transform="matrix(1.0, 0.0, 0.0, 1.0, 5.65, 5.65)">
    <path d="M3.35 2.35 L4.35 3.4 5.4 4.45 5.65 4.95 5.4 5.5 Q5.2 5.7 4.9 5.7 4.55 5.7 4.35 5.5 L3.3 4.45 2.3 3.45 -3.4 -2.3 -4.4 -3.3 -5.45 -4.4 -5.65 -4.9 -5.45 -5.45 -4.9 -5.65 -4.35 -5.45 -3.3 -4.4 -2.3 -3.4 3.35 2.35" fill="#db1515" fill-rule="evenodd" stroke="none"/>
    <path d="M3.35 2.35 Q4.1 1.3 4.1 0.0 4.1 -1.7 2.9 -2.9 1.7 -4.15 0.0 -4.1 -1.3 -4.1 -2.3 -3.4 L-3.3 -4.4 Q-1.9 -5.55 0.0 -5.5 2.3 -5.55 3.9 -3.9 5.5 -2.3 5.5 0.0 5.5 1.9 4.35 3.4 L3.35 2.35 M-3.4 -2.3 Q-4.1 -1.3 -4.1 0.0 -4.1 1.7 -2.9 2.9 -1.7 4.1 0.0 4.1 1.3 4.1 2.3 3.45 L3.3 4.45 Q1.9 5.5 0.0 5.5 -2.3 5.5 -3.9 3.9 -5.5 2.25 -5.5 0.0 -5.5 -1.9 -4.4 -3.3 L-3.4 -2.3" fill="#cccccc" fill-rule="evenodd" stroke="none"/>
  </g>
</svg>
