<?xml version="1.0" encoding="UTF-8" standalone="no"?>
<svg xmlns:xlink="http://www.w3.org/1999/xlink" height="15.1px" width="182.9px" xmlns="http://www.w3.org/2000/svg">
  <g transform="matrix(1.0, 0.0, 0.0, 1.0, 82.0, 7.2)">
    <path d="M25.05 6.9 L-65.9 6.9 -65.9 -6.1 25.05 -6.1 25.05 6.9" fill="#ffffff" fill-rule="evenodd" stroke="none"/>
    <path d="M65.65 -6.1 L65.65 6.9 26.05 6.9 26.05 -6.1 65.65 -6.1 M81.05 -6.1 L81.05 6.85 66.65 6.9 66.65 -6.1 81.05 -6.1 M-66.9 -6.1 L-66.9 6.9 -81.0 6.9 -81.0 -6.1 -66.9 -6.1" fill="#cccccc" fill-rule="evenodd" stroke="none"/>
    <path d="M99.95 -6.1 L99.95 6.8 82.0 6.85 82.0 -6.1 99.95 -6.1" fill="#666666" fill-rule="evenodd" stroke="none"/>
    <path d="M-66.9 -6.1 L-81.0 -6.1 -81.0 6.9 -66.9 6.9 -66.9 -6.1 M25.05 6.9 L25.05 -6.1 -65.9 -6.1 -65.9 6.9 25.05 6.9 M81.05 -6.1 L66.65 -6.1 66.65 6.9 81.05 6.85 81.05 -6.1 M99.85 -6.1 L82.05 -6.1 82.05 6.85 85.55 6.85 85.6 6.85 97.2 6.8 97.2 6.85 99.85 6.85 99.85 -6.1 M99.85 -7.05 L99.9 -7.1 100.0 -7.15 100.3 -7.2 100.55 -7.15 100.65 -7.1 100.75 -7.05 100.8 -7.0 100.9 -6.7 100.9 -6.1 100.85 -6.1 100.85 6.85 100.9 6.85 100.9 7.3 100.75 7.65 100.3 7.8 81.85 7.85 81.55 7.9 81.3 7.85 -81.5 7.9 -81.85 7.75 -82.0 7.4 -82.0 -6.6 -81.85 -6.95 -81.5 -7.1 99.6 -7.1 99.85 -7.05 M65.65 -6.1 L26.05 -6.1 26.05 6.9 65.65 6.9 65.65 -6.1" fill="#000000" fill-rule="evenodd" stroke="none"/>
  </g>
</svg>
