<?xml version="1.0" encoding="UTF-8" standalone="no"?>
<svg xmlns:xlink="http://www.w3.org/1999/xlink" height="214.0px" width="311.0px" xmlns="http://www.w3.org/2000/svg">
  <g transform="matrix(1.0, 0.0, 0.0, 1.0, -57.0, -145.0)">
    <path d="M202.95 156.0 Q205.0 160.05 205.0 165.0 L205.0 340.0 Q204.65 347.65 199.15 353.15 193.3 359.0 185.0 359.0 L77.0 359.0 Q68.7 359.0 62.85 353.15 57.35 347.65 57.05 340.0 L57.0 340.0 57.0 165.0 Q57.0 160.05 59.1 156.0 60.5 153.2 62.85 150.85 68.7 145.0 77.0 145.0 L185.0 145.0 Q193.3 145.0 199.15 150.85 201.5 153.2 202.95 156.0 M365.95 156.0 Q368.0 160.05 368.0 165.0 L368.0 340.0 Q367.65 347.65 362.15 353.15 356.3 359.0 348.0 359.0 L240.0 359.0 Q231.7 359.0 225.85 353.15 220.35 347.65 220.05 340.0 L220.0 340.0 220.0 165.0 Q220.0 160.05 222.1 156.0 223.5 153.2 225.85 150.85 231.7 145.0 240.0 145.0 L348.0 145.0 Q356.3 145.0 362.15 150.85 364.5 153.2 365.95 156.0" fill="#eaf0c4" fill-opacity="0.6" fill-rule="evenodd" stroke="none"/>
  </g>
</svg>
