<?xml version="1.0" encoding="UTF-8" standalone="no"?>
<svg xmlns:xlink="http://www.w3.org/1999/xlink" height="72.0px" width="102.0px" xmlns="http://www.w3.org/2000/svg">
  <g transform="matrix(1.0, 0.0, 0.0, 1.0, 47.0, 36.0)">
    <path d="M-37.95 -11.25 L8.6 -11.25 8.6 -18.4 36.25 0.0 8.6 18.45 8.6 11.3 -37.95 11.3 -37.95 -11.25" fill="#768726" fill-rule="evenodd" stroke="none"/>
    <path d="M-37.95 11.3 L8.6 11.3 8.6 18.45 36.25 0.0 8.6 -18.4 8.6 -11.25 -37.95 -11.25 -37.95 11.3 M1.0 -36.0 L55.0 0.0 1.0 36.0 1.0 22.0 -47.0 22.0 -47.0 -22.0 1.0 -22.0 1.0 -36.0" fill="#f9ffd3" fill-rule="evenodd" stroke="none"/>
    <path d="M-37.95 -11.25 L-37.95 11.3" fill="none" stroke="#cccccc" stroke-linecap="round" stroke-linejoin="round" stroke-width="0.05"/>
  </g>
</svg>
