<?xml version="1.0" encoding="UTF-8" standalone="no"?>
<svg xmlns:xlink="http://www.w3.org/1999/xlink" height="20.4px" width="20.5px" xmlns="http://www.w3.org/2000/svg">
  <g transform="matrix(1.0, 0.0, 0.0, 1.0, 20.25, 10.2)">
    <path d="M-3.1 -6.9 Q-0.25 -4.05 -0.25 0.0 -0.25 4.05 -3.1 6.8 -6.0 9.65 -10.0 9.7 L-11.55 9.6 Q-14.7 9.15 -16.95 6.8 -19.75 4.05 -19.75 0.0 -19.75 -4.05 -16.95 -6.9 -15.35 -8.5 -13.25 -9.2 L-10.0 -9.7 Q-6.0 -9.75 -3.1 -6.9" fill="#ffffff" fill-rule="evenodd" stroke="none"/>
    <path d="M-3.1 -6.9 Q-0.25 -4.05 -0.25 0.0 -0.25 4.05 -3.1 6.8 -6.0 9.65 -10.0 9.7 L-11.55 9.6 Q-14.7 9.15 -16.95 6.8 -19.75 4.05 -19.75 0.0 -19.75 -4.05 -16.95 -6.9 -15.35 -8.5 -13.25 -9.2 L-10.0 -9.7 Q-6.0 -9.75 -3.1 -6.9 Z" fill="none" stroke="#000000" stroke-linecap="round" stroke-linejoin="round" stroke-width="1.0"/>
  </g>
</svg>
