<?xml version="1.0" encoding="UTF-8" standalone="no"?>
<svg xmlns:xlink="http://www.w3.org/1999/xlink" height="62.5px" width="130.55px" xmlns="http://www.w3.org/2000/svg">
  <g transform="matrix(1.0, 0.0, 0.0, 1.0, 65.3, 31.25)">
    <path d="M18.1 4.4 L18.3 10.5 Q12.2 11.85 5.7 10.75 4.25 -1.45 5.8 -14.0 L15.55 -14.1 14.3 -12.25 Q13.5 -5.8 14.05 0.25 L17.95 0.5 18.1 4.35 18.1 4.4 18.1 4.35 Q24.2 -6.25 33.8 -15.65 39.75 -7.25 43.8 4.35 L44.95 2.25 37.2 -13.75 45.45 -17.5 50.95 -7.75 55.7 -17.65 64.75 -12.05 Q58.55 3.95 47.95 17.0 43.2 14.85 39.95 11.35 L43.8 4.4 Q39.75 9.15 35.7 12.0 L31.45 0.85 Q26.95 6.35 24.7 11.85 20.6 8.9 18.1 4.4 M43.8 4.4 L43.8 4.35 43.8 4.4 M33.2 10.75 Q31.4 11.45 29.55 11.25 28.0 9.25 28.45 7.25 29.95 5.95 32.05 6.0 33.55 8.1 33.2 10.75 M3.55 0.0 Q1.65 8.1 -5.7 9.85 L-5.3 14.6 -14.45 14.75 -13.8 -25.4 Q-0.85 -26.25 2.3 -17.2 5.45 -8.15 3.55 0.0 M-5.55 4.6 Q-3.95 3.4 -4.3 1.25 -4.6 -0.65 -5.8 -1.15 L-5.55 4.6" fill="#0000ff" fill-rule="evenodd" stroke="none"/>
    <path d="M53.95 13.75 L56.05 15.9 57.45 13.75 Q62.35 19.45 64.3 26.1 62.3 28.7 59.95 30.3 L57.95 25.75 55.05 29.1 52.8 25.5 50.2 30.35 Q47.8 28.45 46.95 25.6 49.3 18.9 53.95 13.75 M42.7 24.05 Q42.15 23.45 41.3 23.45 40.45 23.45 39.85 24.05 39.3 24.7 39.3 25.6 39.3 26.5 39.85 27.1 40.45 27.75 41.3 27.75 42.15 27.75 42.7 27.1 43.3 26.5 43.3 25.6 43.3 24.7 42.7 24.05 M33.05 23.0 Q33.5 15.75 39.2 15.0 47.15 15.35 46.3 24.5 45.1 30.45 39.7 30.6 33.45 29.55 33.05 23.0 M30.9 24.25 Q24.15 26.05 31.35 28.1 L31.55 30.0 Q23.15 32.85 21.7 24.55 20.8 14.2 31.3 15.0 32.85 19.35 30.9 24.25 M11.3 14.25 Q15.2 13.3 19.05 14.25 19.95 17.5 19.3 20.75 15.65 22.1 11.95 20.85 10.65 17.55 11.3 14.25" fill="#c675ec" fill-rule="evenodd" stroke="none"/>
    <path d="M-43.9 -21.15 Q-39.7 -16.45 -39.45 -8.75 -39.25 0.45 -42.8 5.35 L-39.95 5.85 Q-37.25 15.7 -38.95 26.5 -50.7 29.9 -63.4 27.35 -55.4 13.5 -52.15 -0.9 -53.65 -6.05 -56.15 -2.15 L-64.65 -7.15 Q-65.95 -18.7 -57.4 -24.15 -49.65 -27.55 -43.9 -21.15 M-39.2 -29.95 Q-23.8 -33.65 -17.7 -19.9 -14.0 -9.3 -17.2 1.25 -23.0 14.65 -36.45 13.25 -39.3 -8.15 -39.2 -29.95 M-27.7 2.5 Q-27.5 -1.6 -30.2 -1.8 L-29.95 6.35 Q-27.95 5.7 -27.7 2.5" fill="#150185" fill-rule="evenodd" stroke="none"/>
    <path d="M18.1 4.35 L17.95 0.5 14.05 0.25 Q13.5 -5.8 14.3 -12.25 L15.55 -14.1 5.8 -14.0 Q4.25 -1.45 5.7 10.75 12.2 11.85 18.3 10.5 L18.1 4.4 18.1 4.35 Q24.2 -6.25 33.8 -15.65 39.75 -7.25 43.8 4.35 L44.95 2.25 37.2 -13.75 45.45 -17.5 50.95 -7.75 55.7 -17.65 64.75 -12.05 Q58.55 3.95 47.95 17.0 43.2 14.85 39.95 11.35 L43.8 4.4 Q39.75 9.15 35.7 12.0 L31.45 0.85 Q26.95 6.35 24.7 11.85 20.6 8.9 18.1 4.4 M53.95 13.75 Q49.3 18.9 46.95 25.6 47.8 28.45 50.2 30.35 L52.8 25.5 55.05 29.1 57.95 25.75 59.95 30.3 Q62.3 28.7 64.3 26.1 62.35 19.45 57.45 13.75 L56.05 15.9 53.95 13.75 M43.8 4.35 L43.8 4.4 M42.7 24.05 Q43.3 24.7 43.3 25.6 43.3 26.5 42.7 27.1 42.15 27.75 41.3 27.75 40.45 27.75 39.85 27.1 39.3 26.5 39.3 25.6 39.3 24.7 39.85 24.05 40.45 23.45 41.3 23.45 42.15 23.45 42.7 24.05 M33.2 10.75 Q31.4 11.45 29.55 11.25 28.0 9.25 28.45 7.25 29.95 5.95 32.05 6.0 33.55 8.1 33.2 10.75 M33.05 23.0 Q33.45 29.55 39.7 30.6 45.1 30.45 46.3 24.5 47.15 15.35 39.2 15.0 33.5 15.75 33.05 23.0 M30.9 24.25 Q24.15 26.05 31.35 28.1 L31.55 30.0 Q23.15 32.85 21.7 24.55 20.8 14.2 31.3 15.0 32.85 19.35 30.9 24.25 M11.3 14.25 Q10.65 17.55 11.95 20.85 15.65 22.1 19.3 20.75 19.95 17.5 19.05 14.25 15.2 13.3 11.3 14.25 M3.55 0.0 Q1.65 8.1 -5.7 9.85 L-5.3 14.6 -14.45 14.75 -13.8 -25.4 Q-0.85 -26.25 2.3 -17.2 5.45 -8.15 3.55 0.0 M-43.9 -21.15 Q-39.7 -16.45 -39.45 -8.75 -39.25 0.45 -42.8 5.35 L-39.95 5.85 Q-37.25 15.7 -38.95 26.5 -50.7 29.9 -63.4 27.35 -55.4 13.5 -52.15 -0.9 -53.65 -6.05 -56.15 -2.15 L-64.65 -7.15 Q-65.95 -18.7 -57.4 -24.15 -49.65 -27.55 -43.9 -21.15 M-39.2 -29.95 Q-39.3 -8.15 -36.45 13.25 -23.0 14.65 -17.2 1.25 -14.0 -9.3 -17.7 -19.9 -23.8 -33.65 -39.2 -29.95 M-5.55 4.6 L-5.8 -1.15 Q-4.6 -0.65 -4.3 1.25 -3.95 3.4 -5.55 4.6 M-27.7 2.5 Q-27.5 -1.6 -30.2 -1.8 L-29.95 6.35 Q-27.95 5.7 -27.7 2.5 Z" fill="none" stroke="#ffffff" stroke-linecap="round" stroke-linejoin="round" stroke-width="1.0"/>
  </g>
</svg>
