<?xml version="1.0" encoding="UTF-8" standalone="no"?>
<svg xmlns:xlink="http://www.w3.org/1999/xlink" height="148.0px" width="214.0px" xmlns="http://www.w3.org/2000/svg">
  <g transform="matrix(1.0, 0.0, 0.0, 1.0, -128.0, -146.0)">
    <path d="M336.15 151.85 Q342.0 157.7 342.0 166.0 L342.0 274.0 Q342.0 282.3 336.15 288.15 333.8 290.5 331.0 291.95 326.95 294.0 322.0 294.0 L147.0 294.0 Q139.35 293.65 133.85 288.15 128.0 282.3 128.0 274.0 L128.0 166.0 Q128.0 157.7 133.85 151.85 139.35 146.35 147.0 146.05 L147.0 146.0 322.0 146.0 Q326.95 146.0 331.0 148.1 333.8 149.5 336.15 151.85" fill="#eaf0c4" fill-opacity="0.6" fill-rule="evenodd" stroke="none"/>
  </g>
</svg>
