<?xml version="1.0" encoding="UTF-8" standalone="no"?>
<svg xmlns:xlink="http://www.w3.org/1999/xlink" height="49.1px" width="95.0px" xmlns="http://www.w3.org/2000/svg">
  <g transform="matrix(1.0, 0.0, 0.0, 1.0, 47.5, 24.55)">
    <path d="M15.4 -20.45 Q18.55 -17.3 19.3 -13.2 21.85 -14.55 25.0 -14.55 30.2 -14.55 33.85 -10.9 37.5 -7.25 37.5 -2.05 37.5 0.3 36.8 2.3 39.65 2.95 42.05 4.2 47.5 7.0 47.5 10.95 47.5 14.9 42.05 17.65 L35.65 20.95 22.05 22.95 2.4 24.55 -14.95 23.45 -32.25 20.9 Q-39.3 19.45 -43.4 15.35 -47.5 11.25 -47.5 5.45 -47.5 -0.35 -43.4 -4.45 -39.3 -8.55 -33.5 -8.55 -30.1 -8.55 -27.25 -7.1 -25.55 -9.0 -23.15 -10.7 -16.35 -15.45 -7.3 -16.35 -6.25 -18.6 -4.4 -20.45 -0.3 -24.55 5.5 -24.55 11.3 -24.55 15.4 -20.45" fill="#ddeeff" fill-rule="evenodd" stroke="none"/>
  </g>
</svg>
