<?xml version="1.0" encoding="UTF-8" standalone="no"?>
<svg xmlns:xlink="http://www.w3.org/1999/xlink" height="290.4px" width="556.7px" xmlns="http://www.w3.org/2000/svg">
  <g transform="matrix(1.0, 0.0, 0.0, 1.0, 195.1, 183.05)">
    <path d="M329.15 -114.9 L329.5 -114.35 329.75 -113.65 329.15 -114.9 M-185.35 -83.25 L-181.65 -88.45 -183.25 -86.05 -185.35 -83.25 M-164.7 -112.2 L-159.05 -120.35 Q-162.05 -114.95 -162.45 -111.05 -162.6 -109.0 -161.95 -107.35 -164.4 -111.55 -160.6 -118.0 L-161.25 -117.05 -164.7 -112.2 M29.05 -113.25 L29.45 -113.8 28.8 -112.55 29.05 -113.25 M26.2 -104.0 L26.25 -102.6 Q26.45 -99.3 28.9 -96.95 26.0 -99.45 26.15 -103.55 L26.2 -104.0 M329.65 -98.05 Q332.1 -100.4 332.3 -103.7 L332.35 -105.1 332.4 -104.65 Q332.55 -100.55 329.65 -98.05" fill="#6d92cd" fill-rule="evenodd" stroke="none"/>
    <path d="M329.5 -114.35 L332.55 -109.85 333.85 -108.05 346.35 -89.45 Q353.5 -81.85 361.6 -80.15 L361.6 107.35 337.15 107.35 335.5 -19.0 335.4 -19.0 334.35 -36.05 333.9 -36.05 Q325.8 -67.5 311.45 -93.4 L315.15 -93.95 Q322.6 -94.35 329.05 -97.7 L329.65 -98.05 Q332.55 -100.55 332.4 -104.65 L332.35 -105.1 Q332.05 -109.35 330.05 -113.15 L329.75 -113.65 329.5 -114.35 M21.5 107.35 L-38.15 107.35 -38.5 -17.55 -38.5 -17.9 -38.5 -19.0 -38.55 -19.0 -38.75 -34.95 -38.95 -34.95 Q-41.65 -74.7 -51.0 -109.5 L-50.8 -109.65 -49.45 -107.95 Q-23.4 -74.8 -3.05 -79.05 5.05 -80.75 12.2 -88.35 L24.7 -106.95 26.0 -108.75 29.05 -113.25 28.8 -112.55 28.5 -112.05 Q26.5 -108.25 26.2 -104.0 L26.15 -103.55 Q26.0 -99.45 28.9 -96.95 L29.5 -96.6 Q35.95 -93.25 43.4 -92.85 L47.1 -92.3 Q32.75 -66.4 24.7 -34.95 L24.2 -34.95 23.25 -19.0 23.15 -19.0 21.5 107.35 M-150.45 107.35 L-195.1 107.35 -195.1 -69.7 -185.35 -83.25 -183.25 -86.05 -164.7 -112.2 -161.25 -117.05 -160.6 -118.0 Q-164.4 -111.55 -161.95 -107.35 -160.45 -103.95 -156.95 -102.75 -152.25 -101.35 -147.35 -100.7 L-127.25 -103.45 -123.75 -103.9 Q-139.2 -70.4 -147.45 -34.95 L-147.9 -34.95 -148.85 -19.0 -148.9 -19.0 -150.45 107.35" fill="#607700" fill-rule="evenodd" stroke="none"/>
    <path d="M46.35 -92.5 Q51.0 -90.85 77.95 -98.9 127.95 -66.0 118.65 -101.85 169.1 -73.8 162.55 -90.55 163.05 -94.2 178.9 -72.25 195.45 -95.35 196.0 -91.65 189.45 -74.9 239.9 -102.95 230.6 -67.1 280.6 -100.0 307.55 -91.95 312.2 -93.6 L315.15 -93.95 311.45 -93.4 Q325.8 -67.5 333.9 -36.05 L334.35 -36.05 335.4 -19.0 335.5 -19.0 337.15 107.35 21.5 107.35 23.15 -19.0 23.25 -19.0 24.2 -34.95 24.7 -34.95 Q32.75 -66.4 47.1 -92.3 L43.4 -92.85 46.35 -92.5 M-38.15 107.35 L-150.45 107.35 -148.9 -19.0 -148.85 -19.0 -147.9 -34.95 -147.45 -34.95 Q-139.2 -70.4 -123.75 -103.9 L-127.25 -103.45 -127.3 -103.85 -123.0 -104.75 -113.5 -107.1 Q-79.1 -80.55 -63.85 -114.05 -47.0 -103.25 -54.2 -114.15 L-50.8 -109.65 -51.0 -109.5 Q-41.65 -74.7 -38.95 -34.95 L-38.75 -34.95 -38.55 -19.0 -38.5 -19.0 -38.5 -17.9 -38.5 -17.55 -38.15 107.35" fill="#718c00" fill-rule="evenodd" stroke="none"/>
    <path d="M80.15 -158.6 L83.95 -156.65 Q103.75 -144.1 120.3 -131.05 137.3 -117.65 162.55 -90.55 169.1 -73.8 118.65 -101.85 127.95 -66.0 77.95 -98.9 51.0 -90.85 46.35 -92.5 43.35 -94.3 48.15 -109.05 52.9 -123.85 80.15 -158.6 M196.0 -91.65 Q221.25 -118.75 238.25 -132.15 254.8 -145.2 274.6 -157.75 L278.4 -159.7 Q305.65 -124.95 310.4 -110.15 315.2 -95.4 312.2 -93.6 307.55 -91.95 280.6 -100.0 230.6 -67.1 239.9 -102.95 189.45 -74.9 196.0 -91.65 M-100.8 -180.65 Q-87.55 -171.55 -66.2 -130.2 L-64.95 -127.75 -63.0 -125.4 Q-56.95 -118.3 -54.2 -114.15 -47.0 -103.25 -63.85 -114.05 -79.1 -80.55 -113.5 -107.1 L-123.0 -104.75 -127.3 -103.85 Q-127.95 -107.4 -130.65 -118.0 L-130.85 -118.2 Q-124.25 -151.35 -111.3 -168.35 -106.9 -177.0 -100.8 -180.65" fill="#a2ca00" fill-rule="evenodd" stroke="none"/>
    <path d="M80.15 -158.6 Q52.9 -123.85 48.15 -109.05 43.35 -94.3 46.35 -92.5 L43.4 -92.85 Q35.95 -93.25 29.5 -96.6 L28.9 -96.95 Q26.45 -99.3 26.25 -102.6 L26.2 -104.0 Q26.5 -108.25 28.5 -112.05 L28.8 -112.55 29.45 -113.8 32.1 -117.5 33.0 -118.3 34.2 -120.35 Q66.3 -163.6 80.15 -158.6 M278.4 -159.7 Q292.25 -164.7 324.35 -121.45 L325.55 -119.4 326.45 -118.6 329.15 -114.9 329.75 -113.65 330.05 -113.15 Q332.05 -109.35 332.35 -105.1 L332.3 -103.7 Q332.1 -100.4 329.65 -98.05 L329.05 -97.7 Q322.6 -94.35 315.15 -93.95 L312.2 -93.6 Q315.2 -95.4 310.4 -110.15 305.65 -124.95 278.4 -159.7 M-159.05 -120.35 Q-156.65 -123.6 -154.6 -127.1 L-147.5 -138.9 -138.05 -153.6 Q-130.3 -165.35 -120.65 -175.5 -116.8 -179.55 -111.85 -181.9 -105.9 -184.7 -100.8 -180.65 -106.9 -177.0 -111.3 -168.35 -124.25 -151.35 -130.85 -118.2 L-130.65 -118.0 Q-127.95 -107.4 -127.3 -103.85 L-127.25 -103.45 -147.35 -100.7 Q-152.25 -101.35 -156.95 -102.75 -160.45 -103.95 -161.95 -107.35 -162.6 -109.0 -162.45 -111.05 -162.05 -114.95 -159.05 -120.35" fill="#8bae00" fill-rule="evenodd" stroke="none"/>
  </g>
</svg>
