<?xml version="1.0" encoding="UTF-8" standalone="no"?>
<svg xmlns:xlink="http://www.w3.org/1999/xlink" height="4.85px" width="12.95px" xmlns="http://www.w3.org/2000/svg">
  <g transform="matrix(1.0, 0.0, 0.0, 1.0, 6.45, 2.4)">
    <path d="M4.5 -0.95 L4.5 -0.8 4.6 -0.8 5.65 -0.05 6.1 -0.05 6.35 0.55 6.45 1.1 6.5 1.1 6.5 1.65 6.45 2.35 6.4 2.45 6.25 2.45 6.25 2.4 6.15 2.4 6.15 2.45 6.0 2.45 6.0 2.4 5.85 2.4 5.85 2.35 5.7 2.35 5.7 2.3 4.4 2.3 4.4 2.35 4.25 2.35 4.25 2.4 -4.2 2.4 -4.35 2.4 -4.35 2.35 -5.7 2.35 -5.7 2.4 -5.8 2.4 -5.85 2.4 -5.85 2.45 -6.0 2.45 -6.4 2.45 -6.45 1.65 -6.45 1.1 -6.4 1.1 -6.3 0.55 -6.1 -0.05 -5.65 -0.05 Q-5.15 -0.65 -4.55 -0.8 L-4.55 -0.95 -4.55 -1.45 Q-4.6 -1.85 -4.05 -2.1 L-2.8 -2.4 2.8 -2.4 4.0 -2.1 4.05 -2.05 4.5 -1.65 4.5 -1.45 4.5 -0.95" fill="#022f00" fill-rule="evenodd" stroke="none"/>
  </g>
</svg>
