<?xml version="1.0" encoding="UTF-8" standalone="no"?>
<svg xmlns:xlink="http://www.w3.org/1999/xlink" height="197.5px" width="403.2px" xmlns="http://www.w3.org/2000/svg">
  <g transform="matrix(1.0, 0.0, 0.0, 1.0, 215.9, 183.05)">
    <path d="M-185.35 -83.25 L-181.65 -88.45 -183.25 -86.05 -185.35 -83.25 M-164.7 -112.2 L-159.05 -120.35 Q-162.05 -114.95 -162.45 -111.05 -162.6 -109.0 -161.95 -107.35 -164.4 -111.55 -160.6 -118.0 L-161.25 -117.05 -164.7 -112.2 M29.05 -113.25 L29.45 -113.8 28.8 -112.55 29.05 -113.25 M26.2 -104.0 L26.25 -102.6 Q26.45 -99.3 28.9 -96.95 26.0 -99.45 26.15 -103.55 L26.2 -104.0" fill="#6d92cd" fill-rule="evenodd" stroke="none"/>
    <path d="M80.15 -158.6 L83.95 -156.65 Q103.75 -144.1 120.3 -131.05 137.3 -117.65 162.55 -90.55 169.1 -73.8 118.65 -101.85 127.95 -66.0 77.95 -98.9 51.0 -90.85 46.35 -92.5 43.35 -94.3 48.15 -109.05 52.9 -123.85 80.15 -158.6 M-100.8 -180.65 Q-87.55 -171.55 -66.2 -130.2 L-64.95 -127.75 -63.0 -125.4 Q-56.95 -118.3 -54.2 -114.15 -47.0 -103.25 -63.85 -114.05 -79.1 -80.55 -113.5 -107.1 L-123.0 -104.75 -127.3 -103.85 Q-127.95 -107.4 -130.65 -118.0 L-130.85 -118.2 Q-124.25 -151.35 -111.3 -168.35 -106.9 -177.0 -100.8 -180.65" fill="#b7dbff" fill-rule="evenodd" stroke="none"/>
    <path d="M80.15 -158.6 Q52.9 -123.85 48.15 -109.05 43.35 -94.3 46.35 -92.5 L43.4 -92.85 Q35.95 -93.25 29.5 -96.6 L28.9 -96.95 Q26.45 -99.3 26.25 -102.6 L26.2 -104.0 Q26.5 -108.25 28.5 -112.05 L28.8 -112.55 29.45 -113.8 32.1 -117.5 33.0 -118.3 34.2 -120.35 Q66.3 -163.6 80.15 -158.6 M-159.05 -120.35 Q-156.65 -123.6 -154.6 -127.1 L-147.5 -138.9 -138.05 -153.6 Q-130.3 -165.35 -120.65 -175.5 -116.8 -179.55 -111.85 -181.9 -105.9 -184.7 -100.8 -180.65 -106.9 -177.0 -111.3 -168.35 -124.25 -151.35 -130.85 -118.2 L-130.65 -118.0 Q-127.95 -107.4 -127.3 -103.85 L-127.25 -103.45 -147.35 -100.7 Q-152.25 -101.35 -156.95 -102.75 -160.45 -103.95 -161.95 -107.35 -162.6 -109.0 -162.45 -111.05 -162.05 -114.95 -159.05 -120.35" fill="#a8d5ff" fill-rule="evenodd" stroke="none"/>
    <path d="M21.15 14.4 L-38.05 14.4 -38.75 -34.95 -38.95 -34.95 Q-41.65 -74.7 -51.0 -109.5 L-50.8 -109.65 -49.45 -107.95 Q-13.05 -61.65 12.2 -88.35 L24.7 -106.95 26.0 -108.75 29.05 -113.25 28.8 -112.55 28.5 -112.05 Q26.5 -108.25 26.2 -104.0 L26.15 -103.55 Q26.0 -99.45 28.9 -96.95 L29.5 -96.6 Q35.95 -93.25 43.4 -92.85 L47.1 -92.3 Q32.75 -66.4 24.7 -34.95 L24.2 -34.95 21.15 14.4 M-150.75 14.4 L-215.9 14.45 -215.9 -35.35 Q-211.4 -44.75 -204.35 -56.0 L-194.3 -70.9 -185.35 -83.25 -183.25 -86.05 -164.7 -112.2 -161.25 -117.05 -160.6 -118.0 Q-164.4 -111.55 -161.95 -107.35 -160.45 -103.95 -156.95 -102.75 -152.25 -101.35 -147.35 -100.7 L-127.25 -103.45 -123.75 -103.9 Q-139.2 -70.4 -147.45 -34.95 L-147.9 -34.95 -150.75 14.4" fill="#84b5ee" fill-rule="evenodd" stroke="none"/>
    <path d="M46.35 -92.5 Q51.0 -90.85 77.95 -98.9 127.95 -66.0 118.65 -101.85 169.1 -73.8 162.55 -90.55 163.2 -95.05 187.3 -60.35 L187.3 14.45 21.15 14.4 24.2 -34.95 24.7 -34.95 Q32.75 -66.4 47.1 -92.3 L43.4 -92.85 46.35 -92.5 M-38.05 14.4 L-150.75 14.4 -147.9 -34.95 -147.45 -34.95 Q-139.2 -70.4 -123.75 -103.9 L-127.25 -103.45 -127.3 -103.85 -123.0 -104.75 -113.5 -107.1 Q-79.1 -80.55 -63.85 -114.05 -47.0 -103.25 -54.2 -114.15 L-50.8 -109.65 -51.0 -109.5 Q-41.65 -74.7 -38.95 -34.95 L-38.75 -34.95 -38.05 14.4" fill="#8bbaf0" fill-rule="evenodd" stroke="none"/>
  </g>
</svg>
