<?xml version="1.0" encoding="UTF-8" standalone="no"?>
<svg xmlns:xlink="http://www.w3.org/1999/xlink" height="62.45px" width="553.25px" xmlns="http://www.w3.org/2000/svg">
  <g transform="matrix(1.0, 0.0, 0.0, 1.0, 274.7, -138.2)">
    <path d="M271.35 154.15 L278.55 156.7 278.55 200.65 -274.7 200.65 -274.7 176.15 Q-264.35 169.75 -249.15 164.1 L-229.45 156.75 Q-220.65 153.65 -213.8 152.2 -208.6 151.1 -195.7 149.9 -163.8 145.05 -131.4 154.65 -121.8 157.45 -110.85 162.05 -101.15 166.2 -100.0 166.4 -83.7 169.75 -60.9 170.2 -42.85 169.1 -21.2 166.05 L17.1 159.9 54.0 153.85 111.4 145.25 Q162.25 138.15 179.7 138.2 222.85 138.1 271.35 154.15" fill="#eaddb5" fill-rule="evenodd" stroke="none"/>
  </g>
</svg>
